<mxfile host="app.diagrams.net" modified="2021-10-14T02:01:32.711Z" agent="5.0 (X11; Linux x86_64) AppleWebKit/537.36 (KHTML, like Gecko) Chrome/94.0.4606.81 Safari/537.36" etag="2ZjlYq1M1cJ9lKOHZnjU" version="15.5.2" type="github">
  <diagram id="dE7b0U_o0Ufhu6ubr1Gp" name="Page-1">
    <mxGraphModel dx="1665" dy="521" grid="1" gridSize="10" guides="1" tooltips="1" connect="1" arrows="1" fold="1" page="1" pageScale="1" pageWidth="827" pageHeight="1169" math="0" shadow="0">
      <root>
        <mxCell id="0" />
        <mxCell id="1" parent="0" />
        <mxCell id="HaZ17OVbs_DXKtttHHAE-1" value="" style="rounded=0;whiteSpace=wrap;html=1;" vertex="1" parent="1">
          <mxGeometry x="100" y="240" width="540" height="440" as="geometry" />
        </mxCell>
        <mxCell id="HaZ17OVbs_DXKtttHHAE-3" value="" style="endArrow=none;html=1;rounded=0;entryX=0.5;entryY=0;entryDx=0;entryDy=0;exitX=0.5;exitY=1;exitDx=0;exitDy=0;dashed=1;" edge="1" parent="1" source="HaZ17OVbs_DXKtttHHAE-1" target="HaZ17OVbs_DXKtttHHAE-1">
          <mxGeometry width="50" height="50" relative="1" as="geometry">
            <mxPoint x="330" y="480" as="sourcePoint" />
            <mxPoint x="380" y="430" as="targetPoint" />
          </mxGeometry>
        </mxCell>
        <mxCell id="HaZ17OVbs_DXKtttHHAE-4" value="" style="endArrow=none;html=1;rounded=0;exitX=0;exitY=0.5;exitDx=0;exitDy=0;entryX=1;entryY=0.5;entryDx=0;entryDy=0;dashed=1;" edge="1" parent="1" source="HaZ17OVbs_DXKtttHHAE-1" target="HaZ17OVbs_DXKtttHHAE-1">
          <mxGeometry width="50" height="50" relative="1" as="geometry">
            <mxPoint x="330" y="480" as="sourcePoint" />
            <mxPoint x="380" y="430" as="targetPoint" />
          </mxGeometry>
        </mxCell>
        <mxCell id="HaZ17OVbs_DXKtttHHAE-5" value="BD Cirugías" style="rounded=0;whiteSpace=wrap;html=1;" vertex="1" parent="1">
          <mxGeometry x="504" y="470" width="120" height="60" as="geometry" />
        </mxCell>
        <mxCell id="HaZ17OVbs_DXKtttHHAE-9" style="edgeStyle=orthogonalEdgeStyle;rounded=0;orthogonalLoop=1;jettySize=auto;html=1;exitX=1;exitY=0.5;exitDx=0;exitDy=0;" edge="1" parent="1" source="HaZ17OVbs_DXKtttHHAE-6" target="HaZ17OVbs_DXKtttHHAE-7">
          <mxGeometry relative="1" as="geometry" />
        </mxCell>
        <mxCell id="HaZ17OVbs_DXKtttHHAE-10" style="edgeStyle=orthogonalEdgeStyle;rounded=0;orthogonalLoop=1;jettySize=auto;html=1;exitX=0;exitY=0.5;exitDx=0;exitDy=0;" edge="1" parent="1" source="HaZ17OVbs_DXKtttHHAE-6" target="HaZ17OVbs_DXKtttHHAE-8">
          <mxGeometry relative="1" as="geometry" />
        </mxCell>
        <mxCell id="HaZ17OVbs_DXKtttHHAE-6" value="Viabilidad" style="rounded=0;whiteSpace=wrap;html=1;" vertex="1" parent="1">
          <mxGeometry x="320" y="690" width="120" height="30" as="geometry" />
        </mxCell>
        <mxCell id="HaZ17OVbs_DXKtttHHAE-7" value="Alto" style="text;html=1;strokeColor=none;fillColor=none;align=center;verticalAlign=middle;whiteSpace=wrap;rounded=0;" vertex="1" parent="1">
          <mxGeometry x="534" y="690" width="60" height="30" as="geometry" />
        </mxCell>
        <mxCell id="HaZ17OVbs_DXKtttHHAE-8" value="Bajo" style="text;html=1;strokeColor=none;fillColor=none;align=center;verticalAlign=middle;whiteSpace=wrap;rounded=0;" vertex="1" parent="1">
          <mxGeometry x="160" y="690" width="60" height="30" as="geometry" />
        </mxCell>
        <mxCell id="HaZ17OVbs_DXKtttHHAE-11" value="BD Usuarios" style="rounded=0;whiteSpace=wrap;html=1;" vertex="1" parent="1">
          <mxGeometry x="380" y="520" width="100" height="60" as="geometry" />
        </mxCell>
        <mxCell id="HaZ17OVbs_DXKtttHHAE-12" value="BD Autorizaciones" style="rounded=0;whiteSpace=wrap;html=1;" vertex="1" parent="1">
          <mxGeometry x="490" y="584.5" width="120" height="60" as="geometry" />
        </mxCell>
        <mxCell id="HaZ17OVbs_DXKtttHHAE-16" style="edgeStyle=orthogonalEdgeStyle;rounded=0;orthogonalLoop=1;jettySize=auto;html=1;exitX=0.5;exitY=0;exitDx=0;exitDy=0;entryX=0.5;entryY=1;entryDx=0;entryDy=0;" edge="1" parent="1" source="HaZ17OVbs_DXKtttHHAE-13" target="HaZ17OVbs_DXKtttHHAE-15">
          <mxGeometry relative="1" as="geometry" />
        </mxCell>
        <mxCell id="HaZ17OVbs_DXKtttHHAE-17" style="edgeStyle=orthogonalEdgeStyle;rounded=0;orthogonalLoop=1;jettySize=auto;html=1;exitX=0.5;exitY=1;exitDx=0;exitDy=0;" edge="1" parent="1" source="HaZ17OVbs_DXKtttHHAE-13" target="HaZ17OVbs_DXKtttHHAE-14">
          <mxGeometry relative="1" as="geometry" />
        </mxCell>
        <mxCell id="HaZ17OVbs_DXKtttHHAE-13" value="Impacto Potencial del Negocio" style="rounded=0;whiteSpace=wrap;html=1;" vertex="1" parent="1">
          <mxGeometry x="-20" y="450" width="100" height="60" as="geometry" />
        </mxCell>
        <mxCell id="HaZ17OVbs_DXKtttHHAE-14" value="Bajo" style="text;html=1;strokeColor=none;fillColor=none;align=center;verticalAlign=middle;whiteSpace=wrap;rounded=0;" vertex="1" parent="1">
          <mxGeometry y="620" width="60" height="30" as="geometry" />
        </mxCell>
        <mxCell id="HaZ17OVbs_DXKtttHHAE-15" value="Alto" style="text;html=1;strokeColor=none;fillColor=none;align=center;verticalAlign=middle;whiteSpace=wrap;rounded=0;" vertex="1" parent="1">
          <mxGeometry y="320" width="60" height="30" as="geometry" />
        </mxCell>
        <mxCell id="HaZ17OVbs_DXKtttHHAE-18" value="BD Alto Costo" style="rounded=0;whiteSpace=wrap;html=1;" vertex="1" parent="1">
          <mxGeometry x="524" y="250" width="100" height="60" as="geometry" />
        </mxCell>
        <mxCell id="HaZ17OVbs_DXKtttHHAE-19" value="BD Cotizaciones" style="rounded=0;whiteSpace=wrap;html=1;" vertex="1" parent="1">
          <mxGeometry x="510" y="320" width="100" height="60" as="geometry" />
        </mxCell>
        <mxCell id="HaZ17OVbs_DXKtttHHAE-20" value="BD Tiquetes Terrestres-Aereos" style="rounded=0;whiteSpace=wrap;html=1;" vertex="1" parent="1">
          <mxGeometry x="380" y="320" width="100" height="60" as="geometry" />
        </mxCell>
        <mxCell id="HaZ17OVbs_DXKtttHHAE-21" value="BD Anticipos" style="rounded=0;whiteSpace=wrap;html=1;" vertex="1" parent="1">
          <mxGeometry x="480" y="390" width="100" height="60" as="geometry" />
        </mxCell>
        <mxCell id="HaZ17OVbs_DXKtttHHAE-22" value="BD Cotización" style="rounded=0;whiteSpace=wrap;html=1;" vertex="1" parent="1">
          <mxGeometry x="390" y="250" width="100" height="60" as="geometry" />
        </mxCell>
      </root>
    </mxGraphModel>
  </diagram>
</mxfile>
